<?xml version="1.0" encoding="utf-8"?>
<svg version="1.1" id="Capa_1" xmlns="http://www.w3.org/2000/svg" xmlns:xlink="http://www.w3.org/1999/xlink" x="0px" y="0px"
	 viewBox="0 0 800 600" fill= "#011f02" style="enable-background:new 0 0 800 600;" xml:space="preserve">
<g>
	<g>
		<path d="M217.74,323.99c-3.24,0-6.39-0.25-9.44-0.75c-3.06-0.5-6.02-1.25-8.91-2.24c-4.77-1.5-8.79-3.68-12.06-6.54
			c-4.27-3.74-6.91-8.23-7.92-13.46c-0.63-3.24,0-6.26,1.88-9.07c1.88-2.81,4.52-4.52,7.92-5.14c3.27-0.62,6.25-0.03,8.95,1.78
			c2.7,1.81,4.43,4.27,5.18,7.39c0.37,0.37,1.28,0.93,2.71,1.68c1.43,0.75,3.58,1.31,6.45,1.68c2.87,0.37,5.8,0.44,8.79,0.19
			c2.99-0.25,5.67-0.87,8.04-1.87c3.37-1.37,5.39-2.96,6.08-4.77c0.68-1.81,0.9-3.58,0.65-5.33c-0.25-1.87-0.78-3.49-1.59-4.86
			c-0.81-1.37-2.03-2.62-3.65-3.74c-1.62-1.12-3.68-2.21-6.17-3.27c-2.5-1.06-5.49-2.21-8.98-3.46c-3.87-1.37-7.71-2.83-11.52-4.39
			c-3.82-1.56-7.42-3.65-10.81-6.26c-8.79-6.48-13.57-15.52-14.32-27.12c-0.5-7.11,0.88-13.77,4.15-20.01
			c3.14-5.48,7.41-9.97,12.82-13.46c6.77-4.49,14.76-7.11,23.99-7.85c4.36-0.25,8.6,0.03,12.72,0.84c4.11,0.81,7.92,2.09,11.41,3.83
			c5.24,2.74,9.32,6.36,12.25,10.85c2.93,4.49,4.52,9.54,4.77,15.15c0.25,3.37-0.78,6.26-3.09,8.7c-2.31,2.43-5.14,3.77-8.51,4.02
			c-3.37,0.13-6.26-0.96-8.7-3.27c-2.43-2.31-3.71-5.14-3.83-8.51c-0.13-0.62-0.35-1.4-0.65-2.34c-0.31-0.94-1.4-1.9-3.27-2.9
			c-1.62-0.87-3.46-1.46-5.52-1.78c-2.06-0.31-4.18-0.37-6.36-0.19c-2.18,0.19-4.3,0.59-6.36,1.22c-2.06,0.63-3.9,1.5-5.52,2.62
			c-2.87,1.87-4.61,3.87-5.24,5.98c-0.63,2.12-0.87,3.93-0.75,5.42c0.12,2.12,0.53,3.9,1.22,5.33c0.68,1.43,1.81,2.78,3.37,4.02
			c1.56,1.25,3.61,2.43,6.17,3.55c2.55,1.12,5.76,2.37,9.63,3.74c3.61,1.25,7.29,2.62,11.03,4.11c3.74,1.5,7.23,3.43,10.47,5.8
			c8.6,6.24,13.59,14.65,14.96,25.25c0.75,5.49,0.25,10.72-1.5,15.71c-1.75,4.74-4.43,8.79-8.04,12.15
			c-5.86,5.74-13.78,9.35-23.75,10.85c-1.5,0.25-3.02,0.44-4.58,0.56C220.76,323.93,219.24,323.99,217.74,323.99z"/>
		<path d="M217.74,324.37c-3.25,0-6.45-0.25-9.5-0.75c-3.06-0.5-6.08-1.26-8.97-2.26c-4.8-1.5-8.9-3.73-12.19-6.62
			c-4.32-3.78-7.02-8.38-8.04-13.68c-0.64-3.33,0.01-6.47,1.94-9.35c1.93-2.88,4.67-4.66,8.16-5.3c3.35-0.64,6.45-0.02,9.23,1.83
			c2.74,1.83,4.53,4.36,5.31,7.5c0.29,0.26,0.96,0.72,2.55,1.55c1.39,0.72,3.51,1.28,6.33,1.64c2.84,0.37,5.77,0.43,8.71,0.19
			c2.94-0.24,5.61-0.86,7.93-1.84c3.25-1.32,5.23-2.86,5.87-4.56c0.66-1.74,0.87-3.47,0.63-5.14c-0.24-1.81-0.76-3.4-1.54-4.72
			c-0.78-1.32-1.97-2.54-3.54-3.62c-1.59-1.1-3.64-2.19-6.1-3.24c-2.49-1.05-5.5-2.22-8.96-3.45c-3.86-1.37-7.74-2.85-11.54-4.4
			c-3.83-1.56-7.49-3.69-10.9-6.31c-8.84-6.51-13.71-15.73-14.47-27.39c-0.5-7.14,0.91-13.94,4.19-20.21
			c3.16-5.52,7.51-10.1,12.94-13.6c6.78-4.5,14.92-7.16,24.17-7.91c4.38-0.25,8.69,0.04,12.82,0.85c4.13,0.82,8,2.12,11.5,3.87
			c5.28,2.76,9.44,6.46,12.4,10.98c2.95,4.52,4.58,9.68,4.83,15.34c0.25,3.45-0.82,6.47-3.19,8.97c-2.36,2.49-5.31,3.88-8.75,4.14
			c-3.47,0.13-6.49-1.01-8.98-3.37c-2.5-2.37-3.82-5.32-3.95-8.77c-0.11-0.54-0.33-1.31-0.64-2.23c-0.28-0.83-1.32-1.74-3.09-2.69
			c-1.58-0.85-3.4-1.43-5.4-1.74c-2.03-0.31-4.14-0.37-6.27-0.18c-2.14,0.18-4.25,0.59-6.28,1.2c-2.02,0.61-3.84,1.48-5.41,2.57
			c-2.79,1.82-4.5,3.76-5.09,5.78c-0.61,2.06-0.86,3.84-0.73,5.29c0.12,2.07,0.52,3.81,1.18,5.2c0.66,1.38,1.75,2.69,3.26,3.89
			c1.52,1.22,3.57,2.4,6.09,3.5c2.54,1.12,5.77,2.37,9.6,3.73c3.63,1.25,7.35,2.64,11.05,4.12c3.74,1.5,7.29,3.46,10.55,5.84
			c8.65,6.27,13.73,14.85,15.11,25.5c0.75,5.52,0.24,10.86-1.51,15.88c-1.76,4.78-4.5,8.91-8.14,12.31
			c-5.88,5.76-13.94,9.44-23.95,10.94c-1.49,0.25-3.04,0.44-4.61,0.56C220.77,324.3,219.22,324.37,217.74,324.37z M191.64,286.92
			c-0.77,0-1.56,0.08-2.36,0.23c-3.28,0.6-5.86,2.28-7.67,4.98c-1.82,2.71-2.43,5.66-1.83,8.79c0.98,5.13,3.61,9.59,7.79,13.25
			c3.21,2.82,7.22,5,11.93,6.47c2.87,0.99,5.84,1.74,8.86,2.23c3.01,0.49,6.17,0.74,9.38,0.74c1.46,0,2.99-0.06,4.55-0.19
			c1.54-0.12,3.08-0.31,4.55-0.56c9.85-1.48,17.77-5.09,23.55-10.74c3.56-3.32,6.23-7.36,7.95-12.02c1.71-4.9,2.21-10.13,1.48-15.53
			c-1.35-10.44-6.34-18.85-14.81-24.99c-3.21-2.34-6.71-4.28-10.39-5.75c-3.69-1.48-7.4-2.86-11.02-4.11
			c-3.85-1.37-7.1-2.63-9.66-3.75c-2.58-1.13-4.68-2.34-6.25-3.6c-1.6-1.27-2.76-2.67-3.47-4.15c-0.71-1.47-1.13-3.31-1.25-5.47
			c-0.13-1.53,0.13-3.4,0.76-5.55c0.65-2.2,2.46-4.28,5.39-6.19c1.63-1.13,3.52-2.03,5.61-2.66c2.08-0.63,4.24-1.04,6.43-1.23
			c2.19-0.19,4.36-0.12,6.45,0.19c2.09,0.32,3.98,0.93,5.64,1.82c1.98,1.06,3.1,2.07,3.45,3.11c0.32,0.95,0.54,1.75,0.67,2.38
			c0.13,3.31,1.38,6.08,3.72,8.31c2.34,2.22,5.18,3.28,8.42,3.17c3.24-0.24,6.02-1.55,8.25-3.9c2.22-2.34,3.22-5.17,2.98-8.41
			c-0.25-5.53-1.83-10.56-4.71-14.97c-2.88-4.41-6.95-8.02-12.11-10.72c-3.44-1.72-7.24-3-11.31-3.8c-4.07-0.8-8.31-1.08-12.62-0.83
			c-9.11,0.74-17.12,3.36-23.81,7.79c-5.33,3.45-9.6,7.93-12.7,13.34c-3.21,6.13-4.59,12.8-4.1,19.8
			c0.74,11.43,5.51,20.46,14.17,26.84c3.35,2.59,6.96,4.68,10.73,6.22c3.78,1.55,7.65,3.02,11.5,4.39c3.47,1.24,6.5,2.41,9,3.47
			c2.51,1.07,4.61,2.18,6.24,3.31c1.66,1.15,2.92,2.45,3.76,3.86c0.83,1.41,1.38,3.09,1.64,5c0.26,1.8,0.03,3.65-0.68,5.51
			c-0.72,1.9-2.84,3.58-6.29,4.98c-2.39,1.01-5.13,1.65-8.15,1.9c-3,0.25-5.98,0.19-8.87-0.19c-2.9-0.38-5.11-0.96-6.58-1.72
			c-1.48-0.77-2.4-1.34-2.8-1.75l-0.07-0.07l-0.02-0.1c-0.73-3.01-2.42-5.42-5.03-7.16C196.01,287.57,193.9,286.92,191.64,286.92z"
			/>
	</g>
	<g>
		<path d="M295.7,236.24c1.83,2.09,2.75,4.36,2.75,6.81c0,2.53-0.92,4.84-2.75,6.94c-1.14,1.13-2.4,2.01-3.8,2.62
			c-2.01,0.87-4.32,1.31-6.94,1.31c-1.22,0-2.44-0.11-3.66-0.33c-1.22-0.22-2.31-0.54-3.27-0.98c-0.79-0.35-1.48-0.74-2.09-1.18
			c-0.61-0.44-1.18-0.92-1.7-1.44c-1.83-1.92-2.75-4.23-2.75-6.94c0-2.53,0.92-4.8,2.75-6.81c0.52-0.52,1.09-1,1.7-1.44
			c0.61-0.44,1.31-0.83,2.09-1.18c0.96-0.44,2.05-0.76,3.27-0.98c1.22-0.22,2.44-0.33,3.66-0.33c2.62,0,4.93,0.44,6.94,1.31
			C293.3,234.32,294.56,235.19,295.7,236.24z M293.73,266.35c0.88,5.24,1.25,10.47,1.12,15.71c-0.13,5.24-0.33,10.25-0.59,15.05
			c-0.18,3.32-0.31,6.5-0.39,9.55c-0.09,3.06,0.04,5.58,0.39,7.59c0.35,2.36-0.18,4.47-1.58,6.35c-1.41,1.88-3.3,2.99-5.67,3.34
			c-0.27,0.09-0.71,0.13-1.32,0.13c-2.02,0-3.85-0.67-5.48-2.03c-1.63-1.35-2.62-3.08-2.97-5.17c-0.44-2.96-0.61-6.19-0.52-9.69
			c0.09-3.49,0.26-7.15,0.52-10.99c0.18-4.36,0.31-8.88,0.39-13.55c0.09-4.67-0.22-9.18-0.92-13.55c-0.35-2.27,0.18-4.36,1.58-6.28
			c1.4-1.92,3.25-3.1,5.54-3.53c2.29-0.35,4.4,0.18,6.33,1.57C292.1,262.24,293.29,264.08,293.73,266.35z"/>
	</g>
	<g>
		<path d="M397.46,323.94h-0.52c-2.34-0.17-4.29-1.13-5.85-2.88c-1.56-1.74-2.25-3.79-2.08-6.15c0.17-3.58,0.28-6.81,0.33-9.69
			c0.04-2.88,0.04-6.19,0-9.95c-0.04-3.75-0.2-7.59-0.46-11.52c-0.52-9.25-1.57-16.67-3.14-22.25c-0.79-3.14-1.55-5.37-2.29-6.68
			c-0.74-1.31-1.29-2.18-1.64-2.62c-0.44,0.35-1.13,1.16-2.09,2.42c-0.96,1.27-2.05,3.47-3.27,6.61c-1.22,2.88-2.31,6.2-3.27,9.95
			c-0.96,3.75-1.92,7.98-2.88,12.7c-0.79,4.1-1.42,8.05-1.9,11.85c-0.48,3.8-0.9,7.2-1.24,10.21c-0.35,3.01-0.65,6.35-0.92,10.01
			c-0.18,2.27-1.07,4.17-2.68,5.69c-1.62,1.53-3.56,2.29-5.83,2.29h-0.13c-2.27-0.09-4.21-0.94-5.82-2.55
			c-1.62-1.61-2.47-3.55-2.55-5.82c-0.09-3.58-0.22-6.85-0.39-9.82c-0.18-2.96-0.41-6.33-0.72-10.08
			c-0.31-3.75-0.68-7.68-1.11-11.78c-0.96-8.99-1.99-15.9-3.08-20.75c-1.09-4.84-2.07-8.4-2.94-10.67c-0.52,1.05-1.09,2.42-1.7,4.12
			c-0.61,1.7-1.27,3.82-1.96,6.35c-0.7,2.53-1.44,5.54-2.22,9.03c-0.79,3.49-1.57,7.51-2.36,12.04c-0.7,4.1-1.31,8.07-1.83,11.91
			c-0.52,3.84-0.96,7.24-1.31,10.21c-0.35,2.97-0.7,6.28-1.05,9.95c-0.18,2.27-1.07,4.15-2.68,5.63c-1.62,1.48-3.56,2.22-5.82,2.22
			c-2.27-0.09-4.19-0.87-5.76-2.36c-1.57-1.48-2.44-3.36-2.62-5.63l-4.97-74.61c-0.18-2.36,0.52-4.41,2.09-6.15
			c1.57-1.74,3.53-2.7,5.89-2.88c2.36-0.17,4.41,0.52,6.15,2.09c1.74,1.57,2.7,3.53,2.88,5.89l0.52,8.12
			c1.66-3.84,3.27-6.85,4.84-9.03c3.14-4.36,6.85-6.72,11.13-7.07c1.22-0.17,2.73-0.07,4.52,0.33s3.64,1.42,5.56,3.08
			c2.01,1.83,3.77,4.36,5.3,7.59c1.53,3.23,2.9,7.42,4.12,12.56c0.09,0.18,0.13,0.33,0.13,0.46s0.04,0.28,0.13,0.46
			c0.44-1.13,0.85-2.18,1.24-3.14c0.39-0.96,0.81-1.88,1.24-2.75c2.01-4.45,4.4-7.98,7.2-10.6c2.36-2.27,4.67-3.73,6.94-4.38
			c2.27-0.65,4.23-0.94,5.89-0.85c4.54,0.18,8.54,2.14,12,5.89c3.9,4.28,6.8,11.13,8.7,20.55c1.3,6.63,2.21,14.7,2.73,24.21
			c0.17,3.93,0.28,7.7,0.33,11.32c0.04,3.62,0.02,6.81-0.06,9.55c-0.09,2.75-0.18,4.95-0.26,6.61c-0.09,1.66-0.13,2.57-0.13,2.75
			c-0.17,2.27-1.04,4.17-2.6,5.69C401.62,323.17,399.71,323.94,397.46,323.94z"/>
	</g>
	<g>
		<path d="M476.97,243.18c4.19,4.36,7.4,9.51,9.62,15.44c2.22,5.94,3.25,12.39,3.08,19.37c-0.18,6.46-1.31,12.56-3.4,18.32
			c-2.01,5.41-4.76,10.21-8.25,14.4c-3.67,4.19-7.77,7.42-12.3,9.69c-4.54,2.27-9.21,3.4-14,3.4c-3.49,0-6.98-0.7-10.47-2.09
			c-2.44-1.05-4.63-2.36-6.54-3.93c-0.18,6.11-0.33,11.84-0.46,17.21c-0.13,5.37-0.37,10.06-0.72,14.07
			c-0.18,2.27-1.07,4.14-2.68,5.63c-1.62,1.48-3.56,2.22-5.82,2.22h-0.65c-2.36-0.18-4.3-1.16-5.82-2.94
			c-1.53-1.79-2.21-3.86-2.03-6.22c0.26-3.84,0.5-8.44,0.72-13.81c0.22-5.37,0.37-11.15,0.46-17.34c0.09-6.19,0.11-12.67,0.07-19.44
			c-0.04-6.76-0.09-13.44-0.13-20.03c-0.04-6.59-0.13-12.94-0.26-19.04c-0.13-6.11-0.24-11.69-0.33-16.75
			c-0.09-2.36,0.67-4.38,2.29-6.09c1.61-1.7,3.6-2.6,5.96-2.68c2.27-0.09,4.23,0.61,5.89,2.09c1.66,1.48,2.57,3.32,2.75,5.5
			c5.67-4.97,12.08-7.46,19.24-7.46c4.36,0,8.64,0.92,12.83,2.75C469.99,237.29,473.66,239.86,476.97,243.18z M472.66,277.73
			c0.08-4.71-0.55-8.99-1.9-12.83c-1.35-3.84-3.34-7.11-5.96-9.82c-3.58-3.58-7.46-5.37-11.65-5.37c-4.01,0-7.33,1.83-9.95,5.5
			c-1.4,1.75-2.73,4.47-3.99,8.18c-1.27,3.71-1.94,8.79-2.03,15.25c-0.09,5.76,0.46,10.76,1.64,14.99c1.18,4.23,2.9,7.48,5.17,9.75
			c2.27,2.27,4.84,3.4,7.72,3.4c2.27,0,4.58-0.63,6.94-1.9c2.36-1.26,4.49-3.03,6.41-5.3c2.36-2.79,4.19-6.04,5.5-9.75
			C471.87,286.13,472.57,282.1,472.66,277.73z"/>
	</g>
	<g>
		<path d="M505.51,323.94c-2.18,0-4.08-0.72-5.69-2.16c-1.62-1.44-2.51-3.29-2.68-5.56c-0.79-7.59-1.16-14.88-1.11-21.86
			c0.04-6.98,0.15-14.18,0.33-21.6c0.17-6.02,0.33-12.15,0.46-18.39c0.13-6.24-0.02-12.76-0.46-19.57
			c-0.18-2.36,0.52-4.41,2.09-6.15c1.57-1.74,3.53-2.7,5.89-2.88c2.36-0.17,4.41,0.55,6.15,2.16c1.75,1.62,2.7,3.56,2.88,5.82
			c0.44,7.16,0.59,13.96,0.46,20.42c-0.13,6.46-0.28,12.83-0.46,19.11c-0.18,7.07-0.28,13.96-0.33,20.68
			c-0.04,6.72,0.28,13.61,0.98,20.68c0.17,2.27-0.48,4.32-1.96,6.15c-1.49,1.83-3.36,2.88-5.63,3.14H505.51z"/>
	</g>
	<g>
		<path d="M545.82,236.24c1.83,2.09,2.75,4.36,2.75,6.81c0,2.53-0.92,4.84-2.75,6.94c-1.13,1.13-2.4,2.01-3.8,2.62
			c-2.01,0.87-4.32,1.31-6.94,1.31c-1.22,0-2.44-0.11-3.67-0.33c-1.22-0.22-2.31-0.54-3.27-0.98c-0.79-0.35-1.48-0.74-2.09-1.18
			c-0.61-0.44-1.18-0.92-1.7-1.44c-1.83-1.92-2.75-4.23-2.75-6.94c0-2.53,0.92-4.8,2.75-6.81c0.52-0.52,1.09-1,1.7-1.44
			c0.61-0.44,1.31-0.83,2.09-1.18c0.96-0.44,2.05-0.76,3.27-0.98c1.22-0.22,2.44-0.33,3.67-0.33c2.62,0,4.93,0.44,6.94,1.31
			C543.42,234.32,544.69,235.19,545.82,236.24z M543.85,266.35c0.88,5.24,1.25,10.47,1.12,15.71c-0.13,5.24-0.33,10.25-0.59,15.05
			c-0.18,3.32-0.31,6.5-0.39,9.55c-0.09,3.06,0.04,5.58,0.39,7.59c0.35,2.36-0.18,4.47-1.58,6.35c-1.41,1.88-3.3,2.99-5.67,3.34
			c-0.27,0.09-0.71,0.13-1.32,0.13c-2.02,0-3.85-0.67-5.47-2.03c-1.63-1.35-2.62-3.08-2.97-5.17c-0.44-2.96-0.61-6.19-0.52-9.69
			c0.09-3.49,0.26-7.15,0.52-10.99c0.18-4.36,0.31-8.88,0.39-13.55c0.09-4.67-0.22-9.18-0.92-13.55c-0.35-2.27,0.18-4.36,1.58-6.28
			c1.4-1.92,3.25-3.1,5.54-3.53c2.29-0.35,4.4,0.18,6.33,1.57C542.23,262.24,543.41,264.08,543.85,266.35z"/>
	</g>
	<g>
		<path d="M621.47,307.05c2.01,1.4,3.21,3.23,3.6,5.5c0.39,2.27-0.11,4.41-1.5,6.41c-0.87,1.22-1.92,2.12-3.14,2.68
			c-1.22,0.57-2.49,0.85-3.8,0.85c-1.75,0-3.4-0.52-4.97-1.57c-7.33-5.15-13.96-10.21-19.89-15.18
			c-5.94-4.97-11.69-9.99-17.28-15.05c-0.18,4.1-0.28,8.18-0.33,12.24c-0.04,4.06-0.02,8.14,0.07,12.24c0,2.36-0.81,4.38-2.42,6.09
			c-1.62,1.7-3.6,2.55-5.96,2.55h-0.13c-2.36,0-4.36-0.81-6.02-2.42c-1.66-1.61-2.49-3.55-2.49-5.82c-0.18-5.41-0.2-10.8-0.07-16.16
			c0.13-5.37,0.28-10.67,0.46-15.9c0.26-8.03,0.44-16.1,0.52-24.21c0.09-8.12-0.22-16.23-0.92-24.35c-0.18-2.36,0.48-4.43,1.96-6.22
			c1.48-1.79,3.4-2.77,5.76-2.94c2.36-0.17,4.43,0.48,6.22,1.96c1.79,1.48,2.77,3.4,2.95,5.76c0.52,5.5,0.85,10.93,0.98,16.3
			c0.13,5.37,0.15,10.76,0.07,16.17c6.02-1.74,11.91-3.51,17.67-5.3c5.76-1.79,11.56-3.9,17.41-6.35c2.18-0.96,4.34-1,6.48-0.13
			c2.14,0.87,3.69,2.4,4.65,4.58c0.96,2.18,0.98,4.34,0.07,6.48c-0.92,2.14-2.47,3.69-4.65,4.65c-4.89,2.09-9.73,3.93-14.53,5.5
			c-4.8,1.57-9.55,3.1-14.27,4.58c5.15,4.54,10.38,9.03,15.71,13.48C608.99,297.89,614.93,302.43,621.47,307.05z"/>
	</g>
</g>
</svg>
